<svg width="102" height="18" viewBox="0 0 102 18" fill="none" xmlns="http://www.w3.org/2000/svg">
<path d="M7.80624 5V7.5H0.579681V5H7.80624ZM2.22031 2.125H5.54843V13.3125C5.54843 13.6198 5.59531 13.8594 5.68906 14.0312C5.78281 14.1979 5.91301 14.3151 6.07968 14.3828C6.25156 14.4505 6.44947 14.4844 6.67343 14.4844C6.82968 14.4844 6.98593 14.4714 7.14218 14.4453C7.29843 14.4141 7.41822 14.3906 7.50156 14.375L8.02499 16.8516C7.85833 16.9036 7.62395 16.9635 7.32187 17.0313C7.01979 17.1042 6.6526 17.1484 6.22031 17.1641C5.41822 17.1953 4.7151 17.0885 4.11093 16.8437C3.51197 16.599 3.04583 16.2187 2.71249 15.7031C2.37916 15.1875 2.2151 14.5365 2.22031 13.75V2.125ZM9.97421 17V5H13.2008V7.09375H13.3258C13.5445 6.34896 13.9117 5.78646 14.4273 5.40625C14.943 5.02083 15.5367 4.82812 16.2086 4.82812C16.3753 4.82812 16.5549 4.83854 16.7477 4.85937C16.9404 4.88021 17.1096 4.90885 17.2555 4.94531V7.89844C17.0992 7.85156 16.8831 7.8099 16.607 7.77344C16.331 7.73698 16.0784 7.71875 15.8492 7.71875C15.3596 7.71875 14.9221 7.82552 14.5367 8.03906C14.1565 8.2474 13.8544 8.53906 13.6305 8.91406C13.4117 9.28906 13.3023 9.72135 13.3023 10.2109V17H9.97421ZM23.8863 17.2344C22.6519 17.2344 21.5894 16.9844 20.6988 16.4844C19.8134 15.9792 19.1311 15.2656 18.6519 14.3437C18.1728 13.4167 17.9332 12.3203 17.9332 11.0547C17.9332 9.82031 18.1728 8.73698 18.6519 7.80469C19.1311 6.8724 19.8056 6.14583 20.6754 5.625C21.5504 5.10417 22.5764 4.84375 23.7535 4.84375C24.5452 4.84375 25.2822 4.97135 25.9644 5.22656C26.6519 5.47656 27.2509 5.85417 27.7613 6.35937C28.2769 6.86458 28.678 7.5 28.9644 8.26562C29.2509 9.02604 29.3941 9.91667 29.3941 10.9375V11.8516H19.2613V9.78906H26.2613C26.2613 9.3099 26.1572 8.88542 25.9488 8.51563C25.7405 8.14583 25.4514 7.85677 25.0816 7.64844C24.7171 7.4349 24.2926 7.32812 23.8082 7.32812C23.303 7.32812 22.8551 7.44531 22.4644 7.67969C22.079 7.90885 21.7769 8.21875 21.5582 8.60937C21.3394 8.99479 21.2275 9.42448 21.2223 9.89844V11.8594C21.2223 12.4531 21.3316 12.9661 21.5504 13.3984C21.7743 13.8307 22.0894 14.1641 22.4957 14.3984C22.9019 14.6328 23.3837 14.75 23.941 14.75C24.3108 14.75 24.6493 14.6979 24.9566 14.5938C25.2639 14.4896 25.5269 14.3333 25.7457 14.125C25.9644 13.9167 26.1311 13.6615 26.2457 13.3594L29.3238 13.5625C29.1676 14.3021 28.8473 14.9479 28.3629 15.5C27.8837 16.0469 27.2639 16.474 26.5035 16.7813C25.7483 17.0833 24.8759 17.2344 23.8863 17.2344ZM31.566 17V5H34.8941V17H31.566ZM33.2379 3.45312C32.7431 3.45312 32.3186 3.28906 31.9644 2.96094C31.6155 2.6276 31.441 2.22917 31.441 1.76562C31.441 1.30729 31.6155 0.914062 31.9644 0.585938C32.3186 0.252604 32.7431 0.0859367 33.2379 0.0859367C33.7327 0.0859367 34.1546 0.252604 34.5035 0.585938C34.8577 0.914062 35.0348 1.30729 35.0348 1.76562C35.0348 2.22917 34.8577 2.6276 34.5035 2.96094C34.1546 3.28906 33.7327 3.45312 33.2379 3.45312ZM40.8883 10.0625V17H37.5602V5H40.732V7.11719H40.8727C41.1383 6.41927 41.5836 5.86719 42.2086 5.46094C42.8336 5.04948 43.5914 4.84375 44.482 4.84375C45.3154 4.84375 46.0419 5.02604 46.6617 5.39062C47.2815 5.75521 47.7633 6.27604 48.107 6.95312C48.4508 7.625 48.6227 8.42708 48.6227 9.35937V17H45.2945V9.95312C45.2997 9.21875 45.1122 8.64583 44.732 8.23438C44.3518 7.81771 43.8284 7.60937 43.1617 7.60937C42.7138 7.60937 42.318 7.70573 41.9742 7.89844C41.6357 8.09115 41.37 8.3724 41.1773 8.74219C40.9898 9.10677 40.8935 9.54688 40.8883 10.0625ZM56.7144 17.2344C55.4801 17.2344 54.4176 16.9844 53.5269 16.4844C52.6415 15.9792 51.9592 15.2656 51.4801 14.3437C51.0009 13.4167 50.7613 12.3203 50.7613 11.0547C50.7613 9.82031 51.0009 8.73698 51.4801 7.80469C51.9592 6.8724 52.6337 6.14583 53.5035 5.625C54.3785 5.10417 55.4046 4.84375 56.5816 4.84375C57.3733 4.84375 58.1103 4.97135 58.7926 5.22656C59.4801 5.47656 60.079 5.85417 60.5894 6.35937C61.1051 6.86458 61.5061 7.5 61.7926 8.26562C62.079 9.02604 62.2223 9.91667 62.2223 10.9375V11.8516H52.0894V9.78906H59.0894C59.0894 9.3099 58.9853 8.88542 58.7769 8.51563C58.5686 8.14583 58.2796 7.85677 57.9098 7.64844C57.5452 7.4349 57.1207 7.32812 56.6363 7.32812C56.1311 7.32812 55.6832 7.44531 55.2926 7.67969C54.9072 7.90885 54.6051 8.21875 54.3863 8.60937C54.1676 8.99479 54.0556 9.42448 54.0504 9.89844V11.8594C54.0504 12.4531 54.1598 12.9661 54.3785 13.3984C54.6025 13.8307 54.9176 14.1641 55.3238 14.3984C55.7301 14.6328 56.2118 14.75 56.7691 14.75C57.1389 14.75 57.4775 14.6979 57.7848 14.5938C58.0921 14.4896 58.3551 14.3333 58.5738 14.125C58.7926 13.9167 58.9592 13.6615 59.0738 13.3594L62.1519 13.5625C61.9957 14.3021 61.6754 14.9479 61.191 15.5C60.7118 16.0469 60.0921 16.474 59.3316 16.7813C58.5764 17.0833 57.704 17.2344 56.7144 17.2344ZM66.3394 17.2031C65.8238 17.2031 65.3811 17.0208 65.0113 16.6562C64.6467 16.2865 64.4644 15.8437 64.4644 15.3281C64.4644 14.8177 64.6467 14.3802 65.0113 14.0156C65.3811 13.651 65.8238 13.4687 66.3394 13.4687C66.8394 13.4687 67.2769 13.651 67.6519 14.0156C68.0269 14.3802 68.2144 14.8177 68.2144 15.3281C68.2144 15.6719 68.1259 15.987 67.9488 16.2734C67.7769 16.5547 67.5504 16.7812 67.2691 16.9531C66.9879 17.1198 66.678 17.2031 66.3394 17.2031ZM70.9469 17V5H74.1187V7.11719H74.2594C74.5094 6.41406 74.926 5.85937 75.5094 5.45312C76.0927 5.04687 76.7906 4.84375 77.6031 4.84375C78.426 4.84375 79.1266 5.04948 79.7047 5.46094C80.2828 5.86719 80.6682 6.41927 80.8609 7.11719H80.9859C81.2307 6.42969 81.6734 5.88021 82.3141 5.46875C82.9599 5.05208 83.7229 4.84375 84.6031 4.84375C85.7229 4.84375 86.6318 5.20052 87.3297 5.91406C88.0328 6.6224 88.3844 7.6276 88.3844 8.92969V17H85.0641V9.58594C85.0641 8.91927 84.887 8.41927 84.5328 8.08594C84.1786 7.7526 83.7359 7.58594 83.2047 7.58594C82.6005 7.58594 82.1292 7.77865 81.7906 8.16406C81.4521 8.54427 81.2828 9.04687 81.2828 9.67187V17H78.0562V9.51562C78.0562 8.92708 77.887 8.45833 77.5484 8.10937C77.2151 7.76042 76.775 7.58594 76.2281 7.58594C75.8583 7.58594 75.525 7.67969 75.2281 7.86719C74.9365 8.04948 74.7047 8.30729 74.5328 8.64062C74.3609 8.96875 74.275 9.35417 74.275 9.79687V17H70.9469ZM96.482 17.2344C95.2477 17.2344 94.1852 16.9844 93.2945 16.4844C92.4091 15.9792 91.7268 15.2656 91.2477 14.3437C90.7685 13.4167 90.5289 12.3203 90.5289 11.0547C90.5289 9.82031 90.7685 8.73698 91.2477 7.80469C91.7268 6.8724 92.4013 6.14583 93.2711 5.625C94.1461 5.10417 95.1721 4.84375 96.3492 4.84375C97.1409 4.84375 97.8779 4.97135 98.5602 5.22656C99.2477 5.47656 99.8466 5.85417 100.357 6.35937C100.873 6.86458 101.274 7.5 101.56 8.26562C101.847 9.02604 101.99 9.91667 101.99 10.9375V11.8516H91.857V9.78906H98.857C98.857 9.3099 98.7529 8.88542 98.5445 8.51563C98.3362 8.14583 98.0471 7.85677 97.6773 7.64844C97.3128 7.4349 96.8883 7.32812 96.4039 7.32812C95.8987 7.32812 95.4508 7.44531 95.0602 7.67969C94.6747 7.90885 94.3727 8.21875 94.1539 8.60937C93.9352 8.99479 93.8232 9.42448 93.818 9.89844V11.8594C93.818 12.4531 93.9273 12.9661 94.1461 13.3984C94.37 13.8307 94.6852 14.1641 95.0914 14.3984C95.4977 14.6328 95.9794 14.75 96.5367 14.75C96.9065 14.75 97.245 14.6979 97.5523 14.5938C97.8596 14.4896 98.1227 14.3333 98.3414 14.125C98.5602 13.9167 98.7268 13.6615 98.8414 13.3594L101.92 13.5625C101.763 14.3021 101.443 14.9479 100.959 15.5C100.479 16.0469 99.8596 16.474 99.0992 16.7813C98.344 17.0833 97.4716 17.2344 96.482 17.2344Z" fill="#89C5CC"/>
</svg>
